<svg width="93" height="82" viewBox="0 0 93 82" fill="none" xmlns="http://www.w3.org/2000/svg">
<path d="M44.091 40.1192C45.2121 41.3043 47.0379 41.3043 48.175 40.1192L65.616 21.8293C70.677 16.5121 70.3887 7.70355 64.7191 2.80277C59.7863 -1.4734 52.4352 -0.704654 47.9188 4.03597L46.125 5.9098L44.3473 4.05199C39.8309 -0.704654 32.4797 -1.4734 27.5469 2.80277C21.8934 7.70355 21.5891 16.5121 26.65 21.8293L44.091 40.1192ZM90.5363 52.5473C88.6465 50.8336 85.6996 50.9457 83.7137 52.5473L68.9152 64.3828C67.1055 65.8403 64.8473 66.625 62.509 66.625H43.5625C42.1531 66.625 41 65.4719 41 64.0625C41 62.6532 42.1531 61.5 43.5625 61.5H56.1027C58.6492 61.5 61.0195 59.7543 61.4359 57.2399C61.9645 54.0368 59.498 51.25 56.375 51.25H30.75C26.4258 51.25 22.2457 52.7395 18.8824 55.4621L11.4352 61.5H2.5625C1.15312 61.5 0 62.6532 0 64.0625V79.4375C0 80.8469 1.15312 82 2.5625 82H59.7062C62.0285 82 64.2867 81.2153 66.1125 79.7578L90.3281 60.3789C92.7625 58.441 92.9547 54.7254 90.5363 52.5473Z" fill="#B28000"/>
</svg>
