<svg width="103" height="82" viewBox="0 0 103 82" fill="none" xmlns="http://www.w3.org/2000/svg">
<path d="M87.125 39.7187V40.2472L98.2879 29.0844C101.795 25.5769 101.795 19.9074 98.2879 16.4L85.7797 3.90779C82.2723 0.400366 76.6027 0.400366 73.0953 3.90779L66.673 10.3301C66.2406 10.282 65.7922 10.25 65.3438 10.25H47.4062C41.4645 10.25 36.5797 14.7344 35.9391 20.5H35.875V39.7187C35.875 43.2582 38.7418 46.125 42.2812 46.125C45.8207 46.125 48.6875 43.2582 48.6875 39.7187V25.625H74.3125C81.3914 25.625 87.125 31.3586 87.125 38.4375V39.7187ZM53.8125 30.75V39.7187C53.8125 46.0929 48.6555 51.25 42.2812 51.25C35.907 51.25 30.75 46.0929 30.75 39.7187V20.7242C25.0004 21.7172 20.2117 25.8972 18.5781 31.6469L15.9355 40.8718L4.21211 52.5953C0.704687 56.1027 0.704687 61.7722 4.21211 65.2797L16.7203 77.7879C20.2277 81.2953 25.8973 81.2953 29.4047 77.7879L35.4426 71.75C35.5867 71.75 35.7309 71.766 35.875 71.766H61.5C65.7441 71.766 69.1875 68.3226 69.1875 64.0785C69.1875 63.1816 69.0273 62.3168 68.7551 61.516H69.1875C73.4316 61.516 76.875 58.0726 76.875 53.8285C76.875 51.7785 76.0742 49.9207 74.7609 48.5433C78.877 47.7426 81.984 44.123 82 39.7668V39.7027C81.984 34.7699 77.9801 30.766 73.0312 30.766H53.8125V30.75Z" fill="#B28000"/>
</svg>
