<svg width="82" height="82" viewBox="0 0 82 82" fill="none" xmlns="http://www.w3.org/2000/svg">
<path d="M41 23.9168C37.0733 23.9142 33.2656 25.2645 30.2177 27.7403C27.1698 30.2161 25.0679 33.6664 24.2658 37.5103C23.4636 41.3542 24.0102 45.3571 25.8135 48.8453C27.6168 52.3335 30.5667 55.094 34.1667 56.6621V64.9168H47.8334V56.6621C51.43 55.0913 54.3763 52.3303 56.177 48.843C57.9777 45.3558 58.523 41.355 57.7213 37.513C56.9195 33.6711 54.8196 30.2222 51.7745 27.7462C48.7294 25.2702 44.9247 23.9179 41 23.9168Z" fill="#B28000"/>
<path d="M71.75 41H75.1667M63.2084 18.7917L66.625 15.375M41 10.25V6.83337M18.7917 18.7917L15.375 15.375M10.25 41H6.83337M34.1667 75.1667H47.8334M58.0834 41C58.0825 37.9203 57.2491 34.8981 55.6713 32.2532C54.0936 29.6082 51.8302 27.439 49.1206 25.9751C46.4111 24.5111 43.3562 23.8068 40.2792 23.9368C37.2022 24.0667 34.2175 25.0261 31.6411 26.7133C29.0646 28.4005 26.9922 30.7528 25.6431 33.5214C24.2939 36.2899 23.7183 39.3716 23.9771 42.4405C24.2359 45.5093 25.3195 48.4512 27.1132 50.9546C28.907 53.4581 31.3441 55.4301 34.1667 56.662V64.9167H47.8334V56.662C50.8804 55.3317 53.4731 53.1414 55.2938 50.3594C57.1144 47.5775 58.0839 44.3248 58.0834 41Z" stroke="#B28000" stroke-width="6.83333" stroke-linecap="round" stroke-linejoin="round"/>
</svg>
