<svg width="82" height="82" viewBox="0 0 82 82" fill="none" xmlns="http://www.w3.org/2000/svg">
<path d="M6.83331 75.1667V68.3333C6.83331 68.3333 23.9166 61.5 41 61.5C58.0833 61.5 75.1666 68.3333 75.1666 68.3333V75.1667H6.83331ZM38.6083 31.0917C34.5083 17.7667 13.6666 20.8417 13.6666 20.8417C13.6666 20.8417 14.35 47.4917 33.825 43.3917C32.4583 33.4833 27.3333 30.75 27.3333 30.75C36.9 30.75 37.5833 42.3667 37.5833 42.3667V58.0833H44.4166V43.7333C44.4166 43.7333 44.4166 30.4083 54.6666 26.9917C54.6666 26.9917 47.8333 37.2417 47.8333 44.075C71.75 46.4667 71.75 13.6667 71.75 13.6667C71.75 13.6667 41.3416 10.25 38.6083 31.0917Z" fill="#B28000"/>
</svg>
